<svg width="501" height="453" viewBox="0 0 501 453" fill="none" xmlns="http://www.w3.org/2000/svg">
<rect x="41" y="334.394" width="61" height="61" transform="rotate(-13.6483 41 334.394)" fill="#88BEE7" fill-opacity="0.2"/>
<rect x="108" y="15.903" width="29.2549" height="29.2549" transform="rotate(-13.6483 108 15.903)" fill="#88BEE7" fill-opacity="0.2"/>
<rect y="226.932" width="33.6139" height="33.6139" transform="rotate(-13.6483 0 226.932)" fill="#9C99DD" fill-opacity="0.2"/>
<rect x="382" y="388.247" width="39.1866" height="45.8687" transform="rotate(-13.6483 382 388.247)" fill="#9C99DD" fill-opacity="0.2"/>
<rect x="353" y="17.3606" width="73.574" height="73.574" transform="rotate(-13.6483 353 17.3606)" fill="#9C99DD" fill-opacity="0.2"/>
<rect x="241" y="416.508" width="36.0572" height="36.0572" transform="rotate(-13.6483 241 416.508)" fill="#88BEE7" fill-opacity="0.2"/>
<rect x="456" y="141.419" width="14.4883" height="14.4883" transform="rotate(-13.6483 456 141.419)" fill="#9C99DD" fill-opacity="0.2"/>
<rect x="466" y="438.419" width="14.4883" height="14.4883" transform="rotate(-13.6483 466 438.419)" fill="#88BEE7" fill-opacity="0.2"/>
<rect x="160" y="419.419" width="14.4883" height="14.4883" transform="rotate(-13.6483 160 419.419)" fill="#9C99DD" fill-opacity="0.2"/>
<rect x="416" y="279.641" width="61" height="61" transform="rotate(-33.4691 416 279.641)" fill="#88BEE7" fill-opacity="0.2"/>
<rect x="26" y="58.3936" width="61" height="61" transform="rotate(-13.6483 26 58.3936)" fill="#9C99DD" fill-opacity="0.2"/>
</svg>
