<svg width="491" height="453" viewBox="0 0 491 453" fill="none" xmlns="http://www.w3.org/2000/svg">
<rect x="392" y="17.3049" width="73.338" height="73.338" transform="rotate(-13.6483 392 17.3049)" fill="#88BEE7" fill-opacity="0.2"/>
<rect x="239" y="411.903" width="28.4303" height="29.2549" transform="rotate(-13.6483 239 411.903)" fill="#88BEE7" fill-opacity="0.2"/>
<rect x="100" y="10.9316" width="33.6139" height="33.6139" transform="rotate(-13.6483 100 10.9316)" fill="#9C99DD" fill-opacity="0.2"/>
<rect x="349" y="408.247" width="39.1866" height="45.8687" transform="rotate(-13.6483 349 408.247)" fill="#9C99DD" fill-opacity="0.2"/>
<rect x="48" y="356.361" width="73.574" height="73.574" transform="rotate(-13.6483 48 356.361)" fill="#9C99DD" fill-opacity="0.2"/>
<rect x="424" y="369.508" width="36.0572" height="36.0572" transform="rotate(-13.6483 424 369.508)" fill="#88BEE7" fill-opacity="0.2"/>
<rect x="463" y="134.419" width="14.4883" height="14.4883" transform="rotate(-13.6483 463 134.419)" fill="#9C99DD" fill-opacity="0.2"/>
<rect x="473" y="431.419" width="14.4883" height="14.4883" transform="rotate(-13.6483 473 431.419)" fill="#88BEE7" fill-opacity="0.2"/>
<rect x="167" y="412.419" width="14.4883" height="14.4883" transform="rotate(-13.6483 167 412.419)" fill="#9C99DD" fill-opacity="0.2"/>
<rect y="139.641" width="61" height="61" transform="rotate(-33.4691 0 139.641)" fill="#88BEE7" fill-opacity="0.2"/>
<rect x="414" y="232.394" width="61" height="61" transform="rotate(-13.6483 414 232.394)" fill="#9C99DD" fill-opacity="0.2"/>
</svg>
