<svg width="491" height="452" viewBox="0 0 491 452" fill="none" xmlns="http://www.w3.org/2000/svg">
<rect x="0.664551" y="62.058" width="61" height="61" transform="rotate(-13.6483 0.664551 62.058)" fill="#88BEE7" fill-opacity="0.2"/>
<rect x="15" y="234.394" width="33.6139" height="33.6139" transform="rotate(-13.6483 15 234.394)" fill="#9C99DD" fill-opacity="0.2"/>
<rect x="286.097" y="12.673" width="39.1866" height="45.8687" transform="rotate(-13.6483 286.097 12.673)" fill="#9C99DD" fill-opacity="0.2"/>
<rect x="342" y="335.361" width="73.574" height="73.574" transform="rotate(-13.6483 342 335.361)" fill="#9C99DD" fill-opacity="0.2"/>
<rect x="223" y="415.508" width="36.0572" height="36.0572" transform="rotate(-13.6483 223 415.508)" fill="#88BEE7" fill-opacity="0.2"/>
<rect x="417" y="37.4187" width="14.4883" height="14.4883" transform="rotate(-13.6483 417 37.4187)" fill="#9C99DD" fill-opacity="0.2"/>
<rect x="448" y="437.419" width="14.4883" height="14.4883" transform="rotate(-13.6483 448 437.419)" fill="#88BEE7" fill-opacity="0.2"/>
<rect x="21" y="3.41867" width="14.4883" height="14.4883" transform="rotate(-13.6483 21 3.41867)" fill="#9C99DD" fill-opacity="0.2"/>
<rect x="406" y="142.641" width="61" height="61" transform="rotate(-33.4691 406 142.641)" fill="#88BEE7" fill-opacity="0.2"/>
<rect x="28" y="384.394" width="61" height="61" transform="rotate(-13.6483 28 384.394)" fill="#9C99DD" fill-opacity="0.2"/>
</svg>
