<svg width="134" height="129" viewBox="0 0 134 129" fill="none" xmlns="http://www.w3.org/2000/svg">
<ellipse cx="67" cy="64.5" rx="67" ry="64.5" fill="#554F4F"/>
<path d="M15.16 42.96H33.24L41.72 77.28L50.2 42.96H69.08L51.88 98H31.48L15.16 42.96ZM90.99 99.28C83.47 99.28 77.1233 97.8933 71.95 95.12L75.95 82.72C81.4433 84.6933 86.35 85.68 90.67 85.68C93.0167 85.68 94.7233 85.4133 95.79 84.88C96.91 84.2933 97.47 83.44 97.47 82.32C97.47 81.5733 97.1767 80.9333 96.59 80.4C96.0033 79.8133 94.83 79.1733 93.07 78.48C91.31 77.7867 88.67 76.9333 85.15 75.92C80.83 74.64 77.47 72.56 75.07 69.68C72.67 66.7467 71.47 63.3867 71.47 59.6C71.47 53.7333 73.39 49.3067 77.23 46.32C81.1233 43.28 86.35 41.76 92.91 41.76C96.3233 41.76 99.6833 42.1333 102.99 42.88C106.297 43.5733 109.23 44.6133 111.79 46L107.47 58.08C104.483 57.0667 101.87 56.3467 99.63 55.92C97.4433 55.44 95.31 55.2 93.23 55.2C89.71 55.2 87.95 56.16 87.95 58.08C87.95 59.04 88.51 59.8667 89.63 60.56C90.8033 61.2 93.1767 62.0267 96.75 63.04C102.35 64.5333 106.59 66.8267 109.47 69.92C112.35 72.96 113.79 76.6133 113.79 80.88C113.79 86.8 111.87 91.36 108.03 94.56C104.19 97.7067 98.51 99.28 90.99 99.28Z" fill="white"/>
<path fill-rule="evenodd" clip-rule="evenodd" d="M72.3831 64.9965C74.4188 65.3573 76.4161 65.7064 78.3711 66.0482C92.2133 68.4681 103.934 70.5172 112.149 73.6899C113.243 75.8537 113.79 78.2503 113.79 80.88C113.79 86.8 111.87 91.36 108.03 94.56C104.19 97.7067 98.51 99.28 90.99 99.28C83.47 99.28 77.1233 97.8933 71.95 95.12L75.95 82.72C81.4433 84.6933 86.35 85.68 90.67 85.68C93.0167 85.68 94.7233 85.4133 95.79 84.88C96.91 84.2933 97.47 83.44 97.47 82.32C97.47 81.5733 97.1767 80.9333 96.59 80.4C96.0033 79.8133 94.83 79.1733 93.07 78.48C91.31 77.7867 88.67 76.9333 85.15 75.92C80.83 74.64 77.47 72.56 75.07 69.68C73.8787 68.224 72.983 66.6628 72.3831 64.9965ZM46.0468 59.7687C51.7755 61.0828 57.3617 62.2165 62.7436 63.2364L51.88 98H31.48L17.7905 51.8316C24.2147 54.0265 30.5886 55.8958 36.8376 57.52L41.72 77.28L46.0468 59.7687Z" fill="url(#paint0_linear)"/>
<defs>
<linearGradient id="paint0_linear" x1="-23.5" y1="45.5" x2="127" y2="108" gradientUnits="userSpaceOnUse">
<stop stop-color="#8439BE" stop-opacity="0.67"/>
<stop offset="1" stop-color="#3AAEE0" stop-opacity="0.64"/>
</linearGradient>
</defs>
</svg>
